<svg xmlns="http://www.w3.org/2000/svg" width="600" height="610.449" viewBox="0 0 600 610.449"><path d="M560.307 400.76a271.434 271.434 0 0 1-22.334 45.189c-47.694 77.36-133.061 128.91-230.447 128.91-149.5 0-270.683-121.466-270.683-271.302 0-111.783 67.453-207.775 163.797-249.305l4.152 18.506c-83.51 40.376-141.364 127.91-141.364 229.406 0 139.816 109.77 253.147 245.181 253.147 78.458 0 148.303-38.054 193.182-97.26a254.744 254.744 0 0 0 36.309-66.65l22.207 9.359z" fill="#ffe042"/><path d="M477.008 547.416c-48.299 33.775-107.068 53.59-170.482 53.59-164.472 0-297.815-133.328-297.815-297.815 0-120.367 71.421-224.058 174.183-271.02l-1.07-5.756C220.02 9.443 262.352 0 306.893 0c17.24 0 34.142 1.407 50.607 4.137l-.394 5.531-.816 11.287c-15.917-2.8-32.298-4.25-49.003-4.25-22.798 0-44.963 2.702-66.2 7.824a279.551 279.551 0 0 0-55.898 19.914v.014C89.702 90.363 23.728 188.48 23.728 302.107c0 157.633 126.953 285.403 283.558 285.403 60.768 0 117.089-19.238 163.248-52.014l6.474 11.92z" fill="#0093cb"/><path d="M593.435 414.735c-22.25 57.559-61.528 106.716-111.698 141.378-49.608 34.254-109.87 54.336-174.845 54.336C137.396 610.45 0 473.8 0 305.218 0 180.952 74.672 74.025 181.825 26.415l1.07 5.756C80.131 79.133 8.71 182.824 8.71 303.191c0 164.487 133.343 297.815 297.815 297.815 63.414 0 122.183-19.815 170.482-53.59 48.074-33.62 85.748-81.061 107.265-136.552l9.162 3.87z" fill="#b72575"/><path d="M310.101 524.899c-120.466 0-218.133-97.667-218.133-218.133 0-110.207 81.75-201.344 187.904-216.065l-4.982-39.32c-24.74 3.518-48.299 10.85-70.098 21.377-83.51 40.376-141.364 127.91-141.364 229.406 0 139.816 109.77 253.147 245.181 253.147 78.458 0 148.303-38.054 193.182-97.26l-19.759-17.028C442.107 492.08 379.946 524.9 310.101 524.9zM162.137 358.244H151.21v-22.266h-6.199v27.486h17.127v-5.22zm15.047-22.266l-2.773 6.607c-.815 1.957-1.468 3.547-2.08 5.26h-.081c-.653-1.794-1.264-3.262-2.12-5.26l-2.774-6.607h-7.136l8.686 16.231v11.255h6.199v-11.46l9.052-16.026h-6.973zm22.428 4.69c2.242 0 3.996.489 5.22 1.02l1.304-4.893c-1.101-.612-3.548-1.225-6.769-1.225-8.32 0-15.007 5.18-15.007 14.558 0 7.83 4.893 13.784 14.395 13.784 3.303 0 5.913-.652 7.014-1.182l-.897-4.894c-1.264.53-3.303.897-5.22.897-5.505 0-8.767-3.466-8.767-8.971 0-6.118 3.833-9.094 8.727-9.094zm28.217 17.698h-11.296v-6.524h10.114v-5.057h-10.114v-5.71h10.725v-5.097h-16.923v27.486h17.494v-5.098zm-8.441-28.872l-3.426 5.017h4.975l4.975-5.017h-6.524zm30.053 11.582v-5.098h-16.923v27.486h17.494v-5.098h-11.296v-6.524h10.114v-5.057h-10.114v-5.71h10.725zm18.472-2.569c2.284 0 4.2.49 5.506 1.142l.896-2.895c-.938-.49-3.14-1.224-6.524-1.224-8.523 0-14.354 5.79-14.354 14.436 0 9.053 5.79 13.946 13.538 13.946 3.344 0 5.995-.652 7.26-1.305l-.694-2.854c-1.427.693-3.63 1.142-5.831 1.142-6.647 0-10.522-4.282-10.522-11.051 0-7.218 4.282-11.337 10.725-11.337zm21.082 25.405c7.014 0 12.764-5.057 12.764-14.476 0-8.197-4.853-13.947-12.397-13.947-7.34 0-12.723 5.71-12.723 14.436 0 8.319 5.056 13.987 12.356 13.987zm.245-25.527c5.912 0 8.767 5.709 8.767 11.214 0 6.238-3.18 11.418-8.808 11.418s-8.808-5.26-8.808-11.173c0-5.995 2.936-11.46 8.849-11.46zm32.826 22.102H310.32v-24.509h-3.588v27.486h15.333v-2.977zm19.654 0h-11.744v-24.509h-3.589v27.486h15.333v-2.977zm14.23-26.018l-3.792-4.73h-4.322l5.22 4.73h2.894zm5.587 26.018H349.63v-9.91h10.643v-2.936H349.63v-8.686h11.295v-2.977h-14.884v27.486h15.496v-2.977zm17.493 3.262c3.712 0 6.892-.897 8.482-1.509v-13.212h-9.053v2.854h5.546v8.197c-.815.408-2.406.733-4.73.733-6.443 0-10.602-4.118-10.602-11.09 0-6.893 4.363-11.053 11.05-11.053 2.774 0 4.609.49 6.076 1.184l.898-2.896c-1.183-.57-3.71-1.264-6.892-1.264-9.216 0-14.884 5.994-14.884 14.19 0 4.283 1.468 7.953 3.833 10.237 2.691 2.568 6.117 3.63 10.276 3.63zm29.727-3.262H396.85v-9.91h10.643v-2.936H396.85v-8.686h11.295v-2.977h-14.884v27.486h15.496v-2.977zm-263.747 40.02h6.199v-27.485h-6.199v27.485zm22.346-10.603l5.872 10.603h6.525v-27.485h-5.71v7.993c0 4.159.123 7.87.49 11.5h-.081c-1.265-3.1-2.855-6.525-4.486-9.42l-5.709-10.073H157v27.485h5.709v-8.277c0-4.486-.082-8.36-.286-12.031h.163c1.305 3.221 3.14 6.77 4.771 9.705zm29.727 10.603v-22.265h7.503v-5.22h-21.123v5.22h7.422v22.265h6.198zm28.177-22.388v-5.097h-16.923v27.485h17.493v-5.097h-11.295v-6.524h10.113v-5.058h-10.113v-5.709h10.725zm5.22 22.388h6.157v-10.806h1.834c2.57.041 3.752.937 4.527 4.405.775 3.383 1.468 5.586 1.876 6.401h6.362c-.53-1.06-1.347-4.65-2.203-7.788-.693-2.529-1.753-4.324-3.67-5.098v-.122c2.365-.856 4.853-3.262 4.853-6.729 0-2.528-.897-4.485-2.57-5.79-1.957-1.55-4.811-2.161-8.89-2.161-3.343 0-6.279.244-8.277.57v27.118zm6.157-22.836c.448-.122 1.305-.204 2.813-.204 2.854 0 4.568 1.305 4.568 3.793 0 2.406-1.836 3.955-4.935 3.955h-2.446v-7.544zm28.788 12.233l5.872 10.603h6.524v-27.485h-5.709v7.993c0 4.159.123 7.87.49 11.5h-.082c-1.264-3.1-2.854-6.525-4.485-9.42l-5.71-10.073h-7.258v27.485h5.71v-8.277c0-4.486-.083-8.36-.287-12.031h.164c1.305 3.221 3.14 6.77 4.77 9.705zm24.589-16.882l-8.36 27.485h6.402l1.958-7.054h7.87l2.12 7.054h6.729l-8.564-27.485h-8.155zm.896 15.781l1.632-5.83c.448-1.591.856-3.67 1.264-5.302h.081c.408 1.632.898 3.67 1.387 5.301l1.712 5.831h-6.076zm21.816 11.704h6.199v-22.265h7.503v-5.22h-21.124v5.22h7.422v22.265zm23.65 0v-27.485h-6.198v27.485h6.199zm17.453.448c8.074 0 13.498-5.423 13.498-14.476 0-7.626-4.608-13.946-13.05-13.946-8.073 0-13.375 6.158-13.375 14.394 0 7.871 4.812 14.028 12.927 14.028zm.326-23.488c4.282 0 6.606 4.24 6.606 9.216 0 5.342-2.406 9.338-6.606 9.338-4.159 0-6.688-3.791-6.688-9.216 0-5.342 2.447-9.338 6.688-9.338zm35.11 15.047c-1.264-3.099-2.854-6.524-4.485-9.42l-5.71-10.072h-7.258v27.485h5.71v-8.277c0-4.486-.083-8.36-.287-12.031h.164c1.305 3.221 3.14 6.77 4.77 9.705l5.873 10.603h6.524v-27.485h-5.709v7.993c0 4.159.123 7.87.49 11.5h-.082zm9.133 7.993h6.402l1.958-7.054h7.87l2.12 7.054h6.73l-8.565-27.485h-8.155l-8.36 27.485zm10.888-17.535c.449-1.59.856-3.67 1.264-5.3h.081c.409 1.63.898 3.669 1.387 5.3l1.713 5.831h-6.076l1.63-5.83zm35.394 12.315h-10.928v-22.265h-6.198v27.485h17.126v-5.22zm23.121 1.51c2.53-2.53 3.956-6.199 3.956-10.685 0-4.444-1.427-7.626-3.914-9.869-2.407-2.201-6.036-3.424-11.133-3.424a45.54 45.54 0 0 0-7.545.611v26.996c1.795.203 3.875.326 6.443.326 5.342 0 9.584-1.387 12.193-3.955zm-15.088-20.798c.938-.204 2.325-.367 4.16-.367 7.503 0 11.173 4.119 11.132 10.603 0 7.421-4.077 11.662-11.703 11.662-1.386 0-2.691-.04-3.589-.163v-21.735zm39.472 21.531h-11.907v-9.909h10.644v-2.936h-10.644v-8.686h11.296v-2.977H476.69v27.485h15.495v-2.977zm21.408-22.51c-1.834-1.468-4.567-2.201-8.4-2.201-3.792 0-6.484.244-8.4.57v27.118h6.158v-9.869c.57.122 1.304.164 2.12.164 3.67 0 6.81-.938 8.93-2.896 1.672-1.508 2.529-3.833 2.529-6.524 0-2.69-1.143-4.975-2.937-6.362zm-8.563 11.01c-.938 0-1.55-.04-2.08-.162v-8.116c.449-.122 1.305-.203 2.529-.203 3.14 0 4.893 1.509 4.893 4.036 0 2.774-2.039 4.445-5.342 4.445zm19.818-13.008l-8.36 27.485h6.402l1.958-7.054h7.87l2.12 7.054h6.729l-8.564-27.485h-8.155zm.896 15.781l1.632-5.83c.448-1.591.856-3.67 1.264-5.302h.081c.408 1.632.898 3.67 1.387 5.301l1.712 5.831h-6.076zm34.743-1.182v-.122c2.365-.856 4.852-3.262 4.852-6.729 0-2.528-.896-4.485-2.569-5.79-1.957-1.55-4.811-2.161-8.89-2.161-3.343 0-6.279.244-8.277.57v27.118h6.157v-10.806h1.835c2.57.041 3.752.937 4.527 4.405.775 3.383 1.468 5.586 1.875 6.401h6.362c-.53-1.06-1.346-4.65-2.202-7.788-.693-2.529-1.754-4.324-3.67-5.098zm-6.28-2.406h-2.447v-7.544c.448-.122 1.305-.204 2.814-.204 2.854 0 4.567 1.305 4.567 3.793 0 2.406-1.835 3.955-4.934 3.955zm16.025 15.292h6.198v-27.485h-6.198v27.485zm22.672-16.312c-3.589-1.345-5.097-2.12-5.097-3.874 0-1.385 1.305-2.65 3.996-2.65 2.65 0 4.65.775 5.71 1.305l1.385-4.975c-1.63-.774-3.873-1.387-7.013-1.387-6.443 0-10.4 3.548-10.4 8.238 0 3.996 3.019 6.525 7.586 8.156 3.303 1.14 4.608 2.12 4.608 3.833 0 1.794-1.509 2.977-4.364 2.977-2.65 0-5.26-.856-6.891-1.712l-1.264 5.097c1.55.856 4.649 1.712 7.788 1.712 7.545 0 11.052-3.915 11.052-8.523 0-3.874-2.243-6.402-7.096-8.197z" fill="#410f2a"/><path d="M307.526 574.858c-149.5 0-270.683-121.465-270.683-271.301 0-111.783 67.453-207.775 163.797-249.305a266.397 266.397 0 0 1 43.19-14.425l-1.322-7.346C120.255 61.4 29.286 171.41 29.286 302.684c0 153.327 124.097 277.62 277.184 277.62 99.54 0 186.835-52.562 235.697-131.484l-4.194-2.871c-47.694 77.36-133.061 128.91-230.447 128.91zm-28.583-251.753c10.26 0 19.604-3.87 26.655-10.232v7.262h22.925V308.3h-9.753v-25.022c0-22.01-17.83-39.841-39.827-39.841s-39.827 17.83-39.827 39.84c0 21.997 17.83 39.828 39.827 39.828zm0-64.863c13.82 0 25.022 11.202 25.022 25.036 0 13.82-11.202 25.022-25.022 25.022s-25.022-11.203-25.022-25.022c0-13.834 11.202-25.036 25.022-25.036zm197.568 64.863c10.26 0 19.604-3.87 26.655-10.232v7.262h22.925V308.3h-9.753v-25.022c0-22.01-17.83-39.841-39.827-39.841-21.996 0-39.827 17.83-39.827 39.84 0 21.997 17.83 39.828 39.827 39.828zm0-64.863c13.82 0 25.022 11.202 25.022 25.036 0 13.82-11.202 25.022-25.022 25.022-13.82 0-25.022-11.203-25.022-25.022 0-13.834 11.202-25.036 25.022-25.036zm92.254 50.058c-13.82 0-25.022-11.203-25.022-25.022 0-13.834 11.202-25.036 25.022-25.036 6.051 0 11.61 2.153 15.93 5.713l10.696-10.315c-7.05-6.333-16.38-10.203-26.626-10.203-21.997 0-39.827 17.83-39.827 39.84 0 21.997 17.83 39.828 39.827 39.828a39.648 39.648 0 0 0 26.626-10.203l-10.71-10.316a24.871 24.871 0 0 1-15.916 5.714zm-423.671 0v11.835h24.557v-5.882c6.854 5.53 15.565 8.852 25.036 8.852 21.997 0 39.827-17.831 39.827-39.827 0-22.01-17.83-39.841-39.827-39.841-9.47 0-18.182 3.32-25.036 8.852v-42.374h-24.557v15.367h9.752V308.3h-9.752zm49.593-50.058c13.82 0 25.022 11.202 25.022 25.036 0 13.82-11.202 25.022-25.022 25.022s-25.036-11.203-25.036-25.022c0-13.834 11.217-25.036 25.036-25.036zm143.602 61.893h14.805v-110.22h-24.571v15.367h9.766v94.853zm93.77-15.368H385.35l46.709-45.962v-15.368h-68.522v15.368h47.595l-47.595 45.962v15.368h68.522v-15.368z" fill="#69615a"/></svg>